<svg width="27" height="27" viewBox="0 0 27 27" fill="none" xmlns="http://www.w3.org/2000/svg">
<path d="M13.5 3.375C11.4975 3.375 9.5399 3.96882 7.87486 5.08137C6.20981 6.19392 4.91206 7.77523 4.14572 9.62533C3.37939 11.4754 3.17888 13.5112 3.56955 15.4753C3.96023 17.4393 4.92454 19.2434 6.34055 20.6595C7.75655 22.0755 9.56066 23.0398 11.5247 23.4305C13.4888 23.8211 15.5246 23.6206 17.3747 22.8543C19.2248 22.0879 20.8061 20.7902 21.9186 19.1251C23.0312 17.4601 23.625 15.5025 23.625 13.5C23.625 12.9825 23.58 12.465 23.5125 11.97C22.9504 12.7582 22.2076 13.4004 21.3464 13.8427C20.4853 14.2851 19.5307 14.5147 18.5625 14.5125C17.2746 14.5125 16.02 14.1035 14.9796 13.3444C13.9392 12.5852 13.1668 11.5153 12.7739 10.2888C12.3809 9.06233 12.3876 7.74273 12.7931 6.52034C13.1986 5.29795 13.9819 4.23594 15.03 3.4875C14.535 3.42 14.0175 3.375 13.5 3.375V3.375Z" fill="black"/>
</svg>
