<svg width="509" height="508" viewBox="0 0 509 508" fill="none" xmlns="http://www.w3.org/2000/svg">
<path d="M257.76 99.3311C257.76 98.5791 257.491 97.9932 256.954 97.5732C256.427 97.1533 255.494 96.7188 254.156 96.2695C252.819 95.8203 251.725 95.3857 250.875 94.9658C248.112 93.6084 246.73 91.7432 246.73 89.3701C246.73 88.1885 247.072 87.1484 247.755 86.25C248.448 85.3418 249.425 84.6387 250.685 84.1406C251.945 83.6328 253.361 83.3789 254.933 83.3789C256.466 83.3789 257.838 83.6523 259.049 84.1992C260.27 84.7461 261.217 85.5273 261.891 86.543C262.565 87.5488 262.902 88.7012 262.902 90H257.775C257.775 89.1309 257.506 88.457 256.969 87.9785C256.442 87.5 255.724 87.2607 254.816 87.2607C253.898 87.2607 253.17 87.4658 252.633 87.876C252.106 88.2764 251.842 88.7891 251.842 89.4141C251.842 89.9609 252.135 90.459 252.721 90.9082C253.307 91.3477 254.337 91.8066 255.812 92.2852C257.286 92.7539 258.497 93.2617 259.445 93.8086C261.749 95.1367 262.902 96.9678 262.902 99.3018C262.902 101.167 262.198 102.632 260.792 103.696C259.386 104.761 257.457 105.293 255.006 105.293C253.278 105.293 251.71 104.985 250.304 104.37C248.907 103.745 247.853 102.896 247.14 101.821C246.437 100.737 246.085 99.4922 246.085 98.0859H251.241C251.241 99.2285 251.534 100.073 252.12 100.62C252.716 101.157 253.678 101.426 255.006 101.426C255.856 101.426 256.525 101.245 257.013 100.884C257.511 100.513 257.76 99.9951 257.76 99.3311Z" fill="white"/>
<path d="M286.244 100.868C285.955 102.326 285.363 103.565 284.469 104.585C283.576 105.596 282.426 106.312 281.02 106.732C279.623 107.154 278.084 107.238 276.404 106.984C273.633 106.567 271.586 105.335 270.265 103.289C268.944 101.243 268.532 98.5737 269.028 95.2808L269.185 94.2379C269.497 92.1714 270.126 90.4194 271.074 88.9821C272.032 87.5366 273.251 86.4956 274.729 85.8593C276.209 85.2133 277.838 85.0242 279.614 85.292C282.173 85.6777 284.128 86.6636 285.479 88.2499C286.832 89.8265 287.436 91.8137 287.292 94.2116L282.222 93.4475C282.377 92.1573 282.192 91.1864 281.669 90.5346C281.145 89.8828 280.26 89.463 279.014 89.2753C277.749 89.0846 276.751 89.4181 276.019 90.2756C275.287 91.1332 274.751 92.5979 274.409 94.6696L274.184 96.1616C273.845 98.4116 273.882 100.062 274.297 101.112C274.721 102.163 275.624 102.793 277.004 103.001C278.173 103.177 279.108 103.037 279.809 102.579C280.51 102.122 280.97 101.298 281.189 100.106L286.244 100.868Z" fill="white"/>
<path d="M299.938 104.352L297.278 103.532L295.059 110.727L290.146 109.211L296.432 88.8304L304.453 91.3045C306.87 92.05 308.594 93.1695 309.626 94.6629C310.657 96.1563 310.87 97.8828 310.266 99.8425C309.828 101.261 309.176 102.347 308.31 103.102C307.453 103.86 306.324 104.339 304.923 104.541L306.644 114.07L306.579 114.28L301.316 112.657L299.938 104.352ZM298.448 99.7384L301.556 100.697C302.489 100.985 303.264 100.958 303.88 100.617C304.509 100.269 304.958 99.6564 305.229 98.7792C305.499 97.902 305.473 97.1428 305.149 96.5014C304.829 95.8506 304.207 95.3828 303.283 95.0978L300.175 94.1393L298.448 99.7384Z" fill="white"/>
<path d="M331.968 114.803C331.065 116.677 329.919 118.168 328.529 119.276C327.139 120.385 325.613 121.021 323.951 121.186C322.303 121.345 320.66 121.031 319.024 120.243C317.387 119.455 316.115 118.382 315.209 117.024C314.306 115.657 313.835 114.103 313.796 112.36C313.766 110.623 314.17 108.839 315.007 107.009L315.529 105.927C316.435 104.044 317.577 102.551 318.954 101.447C320.344 100.339 321.87 99.7028 323.532 99.5384C325.202 99.3781 326.86 99.6942 328.505 100.487C330.133 101.27 331.398 102.357 332.301 103.745C333.204 105.134 333.662 106.715 333.676 108.488C333.702 110.257 333.274 112.067 332.393 113.919L331.968 114.803ZM327.644 111.729C328.563 109.82 328.939 108.218 328.771 106.923C328.617 105.624 327.945 104.688 326.758 104.116C324.435 102.997 322.368 104.148 320.558 107.569L319.865 108.975C318.958 110.858 318.574 112.456 318.711 113.768C318.849 115.081 319.533 116.034 320.765 116.627C321.935 117.191 323.076 117.128 324.189 116.439C325.301 115.749 326.311 114.474 327.218 112.613L327.644 111.729Z" fill="white"/>
<path d="M339.476 127.129L346.871 132.171L344.643 135.439L333 127.501L345.014 109.879L349.262 112.775L339.476 127.129Z" fill="white"/>
<path d="M357.431 141.279L363.992 147.367L361.301 150.266L350.971 140.681L365.478 125.047L369.247 128.544L357.431 141.279Z" fill="white"/>
<path d="M402.804 178.954L399.603 173.41L384.571 182.09L382 177.637L397.033 168.958L393.89 163.515L397.328 161.531L406.242 176.969L402.804 178.954Z" fill="white"/>
<path d="M405.842 204.966C403.906 205.726 402.051 206.039 400.278 205.906C398.506 205.773 396.954 205.202 395.625 204.192C394.307 203.188 393.317 201.841 392.653 200.15C391.99 198.459 391.787 196.807 392.046 195.195C392.314 193.579 393.026 192.119 394.183 190.816C395.343 189.521 396.852 188.488 398.71 187.717L399.828 187.278C401.774 186.515 403.627 186.197 405.387 186.324C407.159 186.457 408.711 187.029 410.041 188.038C411.374 189.057 412.374 190.417 413.042 192.116C413.702 193.798 413.89 195.455 413.608 197.087C413.325 198.719 412.586 200.19 411.389 201.499C410.206 202.813 408.661 203.849 406.756 204.608L405.842 204.966ZM404.763 199.772C406.736 198.997 408.101 198.079 408.859 197.016C409.629 195.958 409.773 194.815 409.292 193.588C408.35 191.188 406.052 190.627 402.399 191.903L400.935 192.462C398.989 193.226 397.62 194.135 396.828 195.191C396.036 196.247 395.89 197.411 396.389 198.683C396.864 199.893 397.743 200.623 399.027 200.874C400.311 201.125 401.919 200.877 403.85 200.13L404.763 199.772Z" fill="white"/>
<path d="M408.551 246.155C409.301 246.099 409.865 245.787 410.244 245.22C410.623 244.663 410.987 243.701 411.335 242.333C411.683 240.965 412.035 239.842 412.39 238.963C413.537 236.106 415.294 234.589 417.66 234.411C418.838 234.323 419.901 234.586 420.848 235.201C421.806 235.824 422.58 236.745 423.17 237.964C423.771 239.183 424.13 240.576 424.248 242.144C424.362 243.673 424.192 245.061 423.737 246.31C423.283 247.568 422.575 248.571 421.612 249.319C420.66 250.066 419.536 250.488 418.24 250.585L417.857 245.472C418.724 245.407 419.376 245.089 419.813 244.518C420.251 243.956 420.436 243.223 420.368 242.317C420.299 241.402 420.04 240.691 419.591 240.186C419.152 239.69 418.622 239.466 417.998 239.513C417.453 239.553 416.978 239.883 416.574 240.501C416.18 241.118 415.799 242.179 415.432 243.686C415.075 245.191 414.659 246.437 414.184 247.422C413.032 249.82 411.292 251.106 408.965 251.28C407.105 251.419 405.591 250.828 404.425 249.505C403.258 248.182 402.583 246.299 402.4 243.854C402.271 242.131 402.461 240.545 402.969 239.096C403.488 237.657 404.256 236.542 405.274 235.751C406.303 234.969 407.518 234.525 408.92 234.42L409.306 239.562C408.166 239.647 407.346 240.002 406.844 240.627C406.353 241.262 406.157 242.241 406.257 243.565C406.32 244.413 406.55 245.066 406.947 245.526C407.354 245.995 407.889 246.205 408.551 246.155Z" fill="white"/>
<path d="M411.114 272.735L411.718 264.672L406.649 264.292L405.936 273.816L401.992 273.52L403.09 258.869L424.358 260.463L423.258 275.143L419.299 274.847L420.015 265.293L415.531 264.957L414.926 273.021L411.114 272.735Z" fill="white"/>
<path d="M406.567 295.939L408.366 288.056L403.41 286.925L401.285 296.236L397.429 295.356L400.699 281.032L421.492 285.778L418.216 300.131L414.346 299.247L416.478 289.907L412.093 288.907L410.294 296.79L406.567 295.939Z" fill="white"/>
<path d="M403.691 335.449L388.46 332.152L398.938 343.682L395.554 349.543L377.083 338.879L379.661 334.413L383.975 336.904L392.555 342.433L381.99 330.379L383.69 327.436L399.43 330.553L390.339 325.879L386.026 323.389L388.597 318.936L407.068 329.601L403.691 335.449Z" fill="white"/>
<path d="M372.403 360.949C370.777 359.652 369.578 358.203 368.807 356.601C368.036 355 367.755 353.37 367.965 351.714C368.176 350.071 368.848 348.539 369.98 347.119C371.113 345.699 372.442 344.698 373.967 344.116C375.501 343.54 377.121 343.427 378.828 343.777C380.529 344.134 382.179 344.925 383.776 346.149L384.715 346.897C386.349 348.2 387.55 349.646 388.32 351.234C389.091 352.836 389.372 354.465 389.163 356.121C388.947 357.786 388.27 359.332 387.131 360.759C386.005 362.172 384.664 363.164 383.11 363.735C381.555 364.306 379.912 364.401 378.18 364.02C376.45 363.652 374.78 362.832 373.171 361.561L372.403 360.949ZM376.363 357.418C378.019 358.739 379.498 359.462 380.797 359.587C382.098 359.725 383.16 359.279 383.982 358.248C385.589 356.232 384.927 353.962 381.995 351.436L380.779 350.447C379.145 349.144 377.673 348.414 376.362 348.255C375.052 348.097 373.97 348.553 373.118 349.622C372.308 350.637 372.116 351.764 372.54 353.002C372.964 354.239 373.983 355.507 375.595 356.806L376.363 357.418Z" fill="white"/>
<path d="M360.687 368.574L362.727 366.681L357.606 361.161L361.375 357.664L375.882 373.299L369.729 379.008C367.875 380.728 366.043 381.662 364.234 381.808C362.425 381.955 360.823 381.276 359.429 379.773C358.419 378.685 357.804 377.577 357.584 376.449C357.356 375.328 357.505 374.111 358.031 372.797L348.918 369.522L348.769 369.361L352.806 365.615L360.687 368.574ZM365.428 369.591L363.044 371.803C362.328 372.467 361.964 373.151 361.951 373.855C361.938 374.574 362.244 375.269 362.868 375.942C363.492 376.615 364.163 376.972 364.88 377.012C365.604 377.06 366.32 376.755 367.029 376.098L369.413 373.886L365.428 369.591Z" fill="white"/>
<path d="M337.325 388.489L344.006 383.934L341.143 379.734L333.251 385.114L331.023 381.847L343.163 373.57L355.177 391.192L343.014 399.485L340.778 396.205L348.693 390.809L346.16 387.093L339.479 391.648L337.325 388.489Z" fill="white"/>
<path d="M301.714 408.312C300.958 408.545 300.268 408.513 299.645 408.214C299.012 407.919 298.591 407.431 298.381 406.749C298.171 406.068 298.244 405.427 298.6 404.827C298.947 404.229 299.499 403.814 300.255 403.581C301.001 403.351 301.689 403.378 302.319 403.664C302.952 403.96 303.375 404.453 303.588 405.143C303.801 405.834 303.728 406.475 303.368 407.066C303.012 407.666 302.461 408.082 301.714 408.312Z" fill="white"/>
<path d="M250.315 408.669C250.315 409.421 250.583 410.007 251.12 410.427C251.648 410.847 252.58 411.281 253.918 411.73C255.256 412.18 256.35 412.614 257.199 413.034C259.963 414.392 261.345 416.257 261.345 418.63C261.345 419.812 261.003 420.852 260.32 421.75C259.626 422.658 258.65 423.361 257.39 423.859C256.13 424.367 254.714 424.621 253.142 424.621C251.609 424.621 250.237 424.348 249.026 423.801C247.805 423.254 246.858 422.473 246.184 421.457C245.51 420.451 245.173 419.299 245.173 418H250.3C250.3 418.869 250.569 419.543 251.106 420.021C251.633 420.5 252.351 420.739 253.259 420.739C254.177 420.739 254.905 420.534 255.442 420.124C255.969 419.724 256.233 419.211 256.233 418.586C256.233 418.039 255.94 417.541 255.354 417.092C254.768 416.652 253.738 416.193 252.263 415.715C250.788 415.246 249.577 414.738 248.63 414.191C246.325 412.863 245.173 411.032 245.173 408.698C245.173 406.833 245.876 405.368 247.282 404.304C248.689 403.239 250.617 402.707 253.069 402.707C254.797 402.707 256.365 403.015 257.771 403.63C259.167 404.255 260.222 405.104 260.935 406.179C261.638 407.263 261.99 408.508 261.99 409.914H256.833C256.833 408.771 256.54 407.927 255.954 407.38C255.359 406.843 254.397 406.574 253.069 406.574C252.219 406.574 251.55 406.755 251.062 407.116C250.564 407.487 250.315 408.005 250.315 408.669Z" fill="white"/>
<path d="M221.831 407.132C222.12 405.674 222.711 404.435 223.606 403.414C224.499 402.403 225.649 401.688 227.055 401.268C228.452 400.846 229.99 400.762 231.671 401.015C234.442 401.433 236.488 402.665 237.809 404.711C239.131 406.757 239.543 409.426 239.047 412.719L238.89 413.762C238.578 415.829 237.949 417.58 237.001 419.018C236.043 420.463 234.824 421.504 233.345 422.141C231.865 422.787 230.237 422.976 228.46 422.708C225.901 422.322 223.946 421.336 222.595 419.75C221.243 418.173 220.639 416.186 220.783 413.788L225.853 414.552C225.698 415.843 225.882 416.814 226.406 417.465C226.93 418.117 227.815 418.537 229.061 418.725C230.326 418.915 231.324 418.582 232.056 417.724C232.787 416.867 233.324 415.402 233.666 413.33L233.891 411.838C234.23 409.588 234.192 407.938 233.778 406.888C233.354 405.837 232.451 405.207 231.07 404.999C229.902 404.823 228.967 404.963 228.266 405.421C227.565 405.878 227.105 406.702 226.886 407.894L221.831 407.132Z" fill="white"/>
<path d="M208.138 403.648L210.797 404.468L213.016 397.273L217.93 398.789L211.643 419.169L203.622 416.695C201.205 415.95 199.481 414.83 198.45 413.337C197.418 411.844 197.205 410.117 197.809 408.157C198.247 406.739 198.899 405.652 199.765 404.898C200.622 404.14 201.751 403.66 203.152 403.459L201.432 393.93L201.496 393.72L206.759 395.343L208.138 403.648ZM209.627 408.261L206.52 407.303C205.586 407.015 204.812 407.042 204.195 407.383C203.567 407.731 203.117 408.343 202.847 409.221C202.576 410.098 202.603 410.857 202.926 411.498C203.246 412.149 203.869 412.617 204.792 412.902L207.9 413.861L209.627 408.261Z" fill="white"/>
<path d="M176.108 393.195C177.011 391.321 178.157 389.83 179.547 388.722C180.937 387.614 182.463 386.977 184.124 386.813C185.773 386.653 187.416 386.967 189.052 387.755C190.689 388.543 191.96 389.616 192.867 390.974C193.77 392.341 194.241 393.896 194.279 395.638C194.31 397.376 193.906 399.159 193.068 400.989L192.547 402.071C191.64 403.954 190.499 405.447 189.122 406.551C187.732 407.659 186.206 408.295 184.544 408.46C182.874 408.62 181.216 408.304 179.57 407.512C177.943 406.728 176.677 405.642 175.774 404.253C174.871 402.864 174.413 401.283 174.4 399.51C174.374 397.742 174.801 395.931 175.682 394.079L176.108 393.195ZM180.432 396.269C179.513 398.179 179.137 399.781 179.304 401.075C179.459 402.375 180.13 403.31 181.318 403.882C183.641 405.001 185.707 403.85 187.517 400.429L188.21 399.023C189.117 397.141 189.502 395.543 189.364 394.23C189.227 392.917 188.542 391.964 187.311 391.371C186.14 390.808 184.999 390.871 183.887 391.56C182.775 392.249 181.765 393.524 180.858 395.385L180.432 396.269Z" fill="white"/>
<path d="M168.599 380.871L161.204 375.829L163.432 372.561L175.075 380.499L163.061 398.121L158.813 395.225L168.599 380.871Z" fill="white"/>
<path d="M150.644 366.719L144.083 360.632L146.773 357.732L157.103 367.317L142.596 382.952L138.827 379.455L150.644 366.719Z" fill="white"/>
<path d="M105.271 329.046L108.471 334.59L123.504 325.91L126.075 330.363L111.042 339.042L114.184 344.485L110.746 346.469L101.833 331.031L105.271 329.046Z" fill="white"/>
<path d="M102.233 303.034C104.169 302.274 106.024 301.96 107.796 302.094C109.569 302.227 111.12 302.798 112.45 303.808C113.768 304.812 114.758 306.159 115.422 307.85C116.085 309.541 116.288 311.193 116.029 312.805C115.761 314.421 115.049 315.88 113.892 317.184C112.732 318.479 111.223 319.512 109.365 320.283L108.246 320.722C106.301 321.485 104.448 321.803 102.688 321.676C100.916 321.543 99.3643 320.971 98.0343 319.962C96.7008 318.943 95.7005 317.583 95.0333 315.883C94.3732 314.202 94.1845 312.545 94.4672 310.913C94.7498 309.281 95.4893 307.81 96.6857 306.501C97.8693 305.187 99.4139 304.151 101.319 303.392L102.233 303.034ZM103.312 308.228C101.339 309.003 99.9739 309.921 99.2162 310.984C98.4458 312.042 98.3015 313.185 98.7831 314.412C99.725 316.812 102.023 317.373 105.676 316.097L107.14 315.538C109.086 314.774 110.455 313.865 111.247 312.809C112.039 311.753 112.185 310.589 111.686 309.316C111.211 308.107 110.332 307.377 109.048 307.126C107.764 306.875 106.156 307.122 104.225 307.87L103.312 308.228Z" fill="white"/>
<path d="M99.5225 261.845C98.7726 261.901 98.2084 262.213 97.8298 262.78C97.4504 263.337 97.0868 264.299 96.7388 265.667C96.3908 267.035 96.0392 268.158 95.6839 269.037C94.5368 271.894 92.7801 273.411 90.4137 273.589C89.2353 273.677 88.1727 273.414 87.2257 272.799C86.2682 272.176 85.494 271.255 84.9032 270.036C84.3027 268.817 83.9437 267.424 83.8262 265.856C83.7116 264.327 83.8818 262.939 84.3366 261.69C84.7907 260.432 85.499 259.429 86.4614 258.681C87.4141 257.934 88.5381 257.512 89.8333 257.415L90.2164 262.528C89.3497 262.593 88.6978 262.911 88.2608 263.482C87.823 264.044 87.6381 264.777 87.7059 265.683C87.7745 266.598 88.0334 267.309 88.4826 267.814C88.9212 268.31 89.4522 268.534 90.0755 268.487C90.6208 268.447 91.0956 268.117 91.4997 267.499C91.8942 266.882 92.2749 265.82 92.6419 264.314C92.9991 262.809 93.415 261.563 93.8896 260.578C95.0417 258.18 96.7816 256.894 99.109 256.72C100.969 256.58 102.482 257.172 103.649 258.495C104.815 259.818 105.49 261.701 105.674 264.146C105.803 265.869 105.613 267.455 105.105 268.904C104.586 270.343 103.817 271.458 102.799 272.249C101.771 273.031 100.556 273.475 99.1533 273.58L98.768 268.438C99.9073 268.353 100.728 267.998 101.229 267.372C101.72 266.738 101.916 265.759 101.817 264.435C101.754 263.587 101.523 262.934 101.127 262.474C100.719 262.005 100.185 261.795 99.5225 261.845Z" fill="white"/>
<path d="M96.9601 235.265L96.3558 243.328L101.425 243.708L102.138 234.184L106.082 234.48L104.984 249.131L83.7159 247.537L84.8161 232.857L88.7747 233.153L88.0588 242.707L92.5433 243.043L93.1476 234.979L96.9601 235.265Z" fill="white"/>
<path d="M101.507 212.061L99.7076 219.944L104.663 221.075L106.788 211.764L110.644 212.644L107.375 226.968L86.5815 222.222L89.8574 207.869L93.7276 208.753L91.5958 218.093L95.9802 219.093L97.7795 211.21L101.507 212.061Z" fill="white"/>
<path d="M104.384 172.551L119.615 175.848L109.137 164.318L112.521 158.457L130.992 169.121L128.413 173.587L124.1 171.096L115.52 165.567L126.084 177.621L124.385 180.564L108.644 177.447L117.735 182.12L122.049 184.611L119.478 189.063L101.007 178.399L104.384 172.551Z" fill="white"/>
<path d="M135.671 147.05C137.297 148.347 138.496 149.796 139.267 151.398C140.038 153 140.319 154.629 140.11 156.286C139.899 157.928 139.227 159.46 138.094 160.88C136.962 162.3 135.633 163.301 134.107 163.883C132.574 164.459 130.953 164.572 129.246 164.222C127.545 163.865 125.896 163.074 124.299 161.851L123.36 161.102C121.726 159.799 120.524 158.353 119.754 156.765C118.983 155.164 118.702 153.534 118.912 151.878C119.127 150.214 119.804 148.668 120.943 147.24C122.069 145.827 123.41 144.835 124.965 144.264C126.52 143.693 128.163 143.598 129.894 143.98C131.624 144.348 133.294 145.167 134.904 146.438L135.671 147.05ZM131.712 150.582C130.055 149.26 128.577 148.537 127.277 148.413C125.976 148.274 124.915 148.721 124.093 149.751C122.485 151.767 123.147 154.038 126.08 156.563L127.296 157.552C128.93 158.855 130.402 159.586 131.712 159.744C133.023 159.902 134.104 159.446 134.956 158.378C135.766 157.362 135.959 156.236 135.535 154.998C135.11 153.76 134.092 152.492 132.479 151.193L131.712 150.582Z" fill="white"/>
<path d="M147.388 139.425L145.347 141.318L150.469 146.837L146.699 150.335L132.193 134.7L138.346 128.991C140.2 127.271 142.031 126.337 143.84 126.191C145.649 126.044 147.251 126.722 148.646 128.226C149.656 129.314 150.271 130.422 150.491 131.55C150.719 132.671 150.57 133.888 150.044 135.202L159.156 138.476L159.306 138.638L155.268 142.384L147.388 139.425ZM142.647 138.408L145.031 136.196C145.747 135.532 146.111 134.848 146.124 134.143C146.137 133.425 145.831 132.73 145.207 132.057C144.582 131.384 143.912 131.027 143.194 130.986C142.471 130.938 141.754 131.243 141.046 131.901L138.662 134.113L142.647 138.408Z" fill="white"/>
<path d="M170.75 119.511L164.069 124.066L166.932 128.266L174.824 122.886L177.052 126.153L164.912 134.43L152.898 116.808L165.061 108.515L167.297 111.795L159.382 117.191L161.915 120.907L168.596 116.352L170.75 119.511Z" fill="white"/>
<path d="M206.361 99.6879C207.117 99.4548 207.807 99.4873 208.43 99.7855C209.063 100.081 209.485 100.569 209.695 101.25C209.905 101.932 209.832 102.572 209.475 103.173C209.128 103.771 208.577 104.186 207.821 104.419C207.074 104.649 206.386 104.622 205.756 104.335C205.123 104.04 204.701 103.547 204.488 102.857C204.275 102.166 204.348 101.525 204.707 100.934C205.063 100.334 205.615 99.9182 206.361 99.6879Z" fill="white"/>
</svg>
