<svg width="36" height="37" viewBox="0 0 36 37" fill="none" xmlns="http://www.w3.org/2000/svg">
<g clip-path="url(#clip0_14_12)">
<path d="M26.2944 22.1596C26.2944 23.6716 26.7246 24.2746 27.8496 24.2746C30.357 24.2746 31.9536 21.0796 31.9536 15.766C31.9536 7.6444 26.0352 3.7564 18.6462 3.7564C11.0448 3.7564 4.13097 8.854 4.13097 18.4876C4.13097 27.6892 10.179 32.7004 19.467 32.7004C22.6206 32.7004 24.7374 32.3548 27.9756 31.2748L28.6704 34.1674C25.4736 35.206 22.0572 35.5066 19.4238 35.5066C7.24137 35.5066 0.71637 28.8106 0.71637 18.4858C0.71637 8.0746 8.27817 0.989799 18.6894 0.989799C29.5326 0.989799 35.2764 7.4698 35.2764 15.4186C35.2764 22.1578 33.1614 27.2986 26.5086 27.2986C23.4828 27.2986 21.4974 26.089 21.2382 23.4088C20.4606 26.3896 18.387 27.2986 15.5772 27.2986C11.8188 27.2986 8.66517 24.4024 8.66517 18.5722C8.66517 12.697 11.4318 9.0682 16.3998 9.0682C19.035 9.0682 20.6766 10.105 21.4074 11.7466L22.662 9.457H26.2908V22.1596H26.2944ZM20.9826 16.4572C20.9826 14.083 19.2096 13.0876 17.7408 13.0876C16.1424 13.0876 14.373 14.3818 14.373 18.1852C14.373 21.2092 15.7122 22.894 17.7408 22.894C19.1664 22.894 20.9826 21.9868 20.9826 19.4812V16.4572Z" fill="white"/>
</g>
<defs>
<clipPath id="clip0_14_12">
<rect width="36" height="36" fill="white" transform="translate(0 0.25)"/>
</clipPath>
</defs>
</svg>
