<svg width="36" height="37" viewBox="0 0 36 37" fill="none" xmlns="http://www.w3.org/2000/svg">
<g clip-path="url(#clip0_18_67)">
<path d="M26.2943 22.1596C26.2943 23.6716 26.7245 24.2746 27.8495 24.2746C30.3569 24.2746 31.9535 21.0796 31.9535 15.766C31.9535 7.6444 26.0351 3.7564 18.6461 3.7564C11.0447 3.7564 4.13091 8.854 4.13091 18.4876C4.13091 27.6892 10.1789 32.7004 19.4669 32.7004C22.6205 32.7004 24.7373 32.3548 27.9755 31.2748L28.6703 34.1674C25.4735 35.206 22.0571 35.5066 19.4237 35.5066C7.24131 35.5066 0.716309 28.8106 0.716309 18.4858C0.716309 8.0746 8.27811 0.989799 18.6893 0.989799C29.5325 0.989799 35.2763 7.4698 35.2763 15.4186C35.2763 22.1578 33.1613 27.2986 26.5085 27.2986C23.4827 27.2986 21.4973 26.089 21.2381 23.4088C20.4605 26.3896 18.3869 27.2986 15.5771 27.2986C11.8187 27.2986 8.66511 24.4024 8.66511 18.5722C8.66511 12.697 11.4317 9.0682 16.3997 9.0682C19.0349 9.0682 20.6765 10.105 21.4073 11.7466L22.6619 9.457H26.2907V22.1596H26.2943ZM20.9825 16.4572C20.9825 14.083 19.2095 13.0876 17.7407 13.0876C16.1423 13.0876 14.3729 14.3818 14.3729 18.1852C14.3729 21.2092 15.7121 22.894 17.7407 22.894C19.1663 22.894 20.9825 21.9868 20.9825 19.4812V16.4572Z" fill="black"/>
</g>
<defs>
<clipPath id="clip0_18_67">
<rect width="36" height="36" fill="white" transform="translate(0 0.25)"/>
</clipPath>
</defs>
</svg>
