<svg width="40" height="39" viewBox="0 0 40 39" fill="none" xmlns="http://www.w3.org/2000/svg">
<g clip-path="url(#clip0_14_7)">
<path d="M10.5766 33.5H3.50178V11.3009H10.5766V33.5ZM7.03494 8.27275C4.77294 8.27275 2.9375 6.44637 2.9375 4.24237C2.9375 3.18353 3.36919 2.16806 4.13761 1.41934C4.90603 0.670624 5.94823 0.25 7.03494 0.25C8.12165 0.25 9.16385 0.670624 9.93226 1.41934C10.7007 2.16806 11.1324 3.18353 11.1324 4.24237C11.1324 6.44637 9.29694 8.27275 7.03494 8.27275ZM37.0552 33.5H29.9962V22.6938C29.9962 20.1181 29.9426 16.8156 26.318 16.8156C22.6398 16.8156 22.0755 19.6134 22.0755 22.5085V33.5H15.008V11.3009H21.7928V14.329H21.8915C22.836 12.5846 25.1431 10.7439 28.5849 10.7439C35.745 10.7439 37.0613 15.3384 37.0613 21.3056V33.5H37.0552Z" fill="white"/>
</g>
<defs>
<clipPath id="clip0_14_7">
<rect width="39" height="38" fill="white" transform="translate(0.5 0.25)"/>
</clipPath>
</defs>
</svg>
