<svg width="40" height="44" viewBox="0 0 40 44" fill="none" xmlns="http://www.w3.org/2000/svg">
<path d="M15.5083 27.8557C15.5083 29.6109 14.6 32.4832 12.45 32.4832C10.3 32.4832 9.39167 29.6109 9.39167 27.8557C9.39167 26.1004 10.3 23.2281 12.45 23.2281C14.6 23.2281 15.5083 26.1004 15.5083 27.8557ZM40 23.6145C40 26.2936 39.7333 29.1322 38.5417 31.593C35.3833 38.0262 26.7 37.875 20.4833 37.875C14.1667 37.875 4.96667 38.1018 1.68333 31.593C0.466667 29.1574 0 26.2936 0 23.6145C0 20.0955 1.15833 16.7697 3.45833 14.0738C3.025 12.7469 2.81667 11.3527 2.81667 9.97539C2.81667 8.16973 3.225 7.2627 4.03333 5.625C7.80833 5.625 10.225 6.38086 13.1 8.64844C15.5167 8.06895 18 7.80859 20.4917 7.80859C22.7417 7.80859 25.0083 8.05215 27.1917 8.58125C30.025 6.33887 32.4417 5.625 36.175 5.625C36.9917 7.2627 37.3917 8.16973 37.3917 9.97539C37.3917 11.3527 37.175 12.7217 36.75 14.0234C39.0417 16.7445 40 20.0955 40 23.6145ZM34.6417 27.8557C34.6417 24.1688 32.4167 20.9186 28.5167 20.9186C26.9417 20.9186 25.4333 21.2041 23.85 21.4225C22.6083 21.6156 21.3667 21.6912 20.0917 21.6912C18.825 21.6912 17.5833 21.6156 16.3333 21.4225C14.775 21.2041 13.25 20.9186 11.6667 20.9186C7.76667 20.9186 5.54167 24.1688 5.54167 27.8557C5.54167 35.2295 12.2417 36.3633 18.075 36.3633H22.0917C27.95 36.3633 34.6417 35.2379 34.6417 27.8557ZM27.7583 23.2281C25.6083 23.2281 24.7 26.1004 24.7 27.8557C24.7 29.6109 25.6083 32.4832 27.7583 32.4832C29.9083 32.4832 30.8167 29.6109 30.8167 27.8557C30.8167 26.1004 29.9083 23.2281 27.7583 23.2281Z" fill="black"/>
</svg>
