<svg width="33" height="32" viewBox="0 0 33 32" fill="none" xmlns="http://www.w3.org/2000/svg">
<path d="M15.5078 2H17.5078V7H15.5078V2Z" fill="white"/>
<path d="M22.1948 8.9L25.7008 5.39301L27.1148 6.80801L23.6088 10.314L22.1948 8.9Z" fill="white"/>
<path d="M25.5078 15H30.5078V17H25.5078V15Z" fill="white"/>
<path d="M22.1948 23.1L23.6088 21.686L27.1148 25.192L25.7008 26.607L22.1948 23.1Z" fill="white"/>
<path d="M15.5078 25H17.5078V30H15.5078V25Z" fill="white"/>
<path d="M5.90179 25.192L9.40779 21.686L10.8218 23.101L7.31579 26.607L5.90179 25.192Z" fill="white"/>
<path d="M2.50781 15H7.50781V17H2.50781V15Z" fill="white"/>
<path d="M5.90179 6.80801L7.31579 5.39301L10.8218 8.9L9.40779 10.314L5.90179 6.80801Z" fill="white"/>
<path d="M16.5078 10C15.3211 10 14.1611 10.3519 13.1744 11.0112C12.1877 11.6705 11.4187 12.6075 10.9645 13.7039C10.5104 14.8003 10.3916 16.0067 10.6231 17.1705C10.8546 18.3344 11.4261 19.4035 12.2652 20.2426C13.1043 21.0818 14.1734 21.6532 15.3373 21.8847C16.5012 22.1162 17.7076 21.9974 18.8039 21.5433C19.9003 21.0892 20.8373 20.3201 21.4966 19.3334C22.1559 18.3467 22.5078 17.1867 22.5078 16C22.5078 14.4087 21.8757 12.8826 20.7505 11.7574C19.6252 10.6321 18.0991 10 16.5078 10Z" fill="white"/>
</svg>
